<svg height="512" viewBox="0 0 512 512" width="512" xmlns="http://www.w3.org/2000/svg"><g><g><g><g fill="#ffdaaa"><path d="m152 176v48c0 28.72 16 54.72 37 73.54q4.455 3.99 9.17 7.53c3.21 2.42 6.5 4.68 9.83 6.76 16.39 10.24 33.72 16.17 48 16.17s31.61-5.93 48-16.17c3.33-2.08 6.62-4.34 9.83-6.76 25.33-19.06 46.17-48.29 46.17-81.07v-112c-40 48-208 64-208 64zm56 32a16 16 0 1 1 16-16 16 16 0 0 1 -16 16zm96 0a16 16 0 1 1 16-16 16 16 0 0 1 -16 16z"/><circle cx="208" cy="192" r="16"/><circle cx="304" cy="192" r="16"/><path d="m304 311.83v32.17h-.01l-47.99 87.99-48-87.99v-32.17c16.39 10.24 33.72 16.17 48 16.17s31.61-5.93 48-16.17z"/></g><path d="m496 496h-480l18.75-73.63a80.021 80.021 0 0 1 60.44-56.31l112.81-22.06 48 87.99 47.99-87.99h.01l112.81 22.06a80.021 80.021 0 0 1 60.44 56.31z" fill="#e0e0e2"/><circle cx="208" cy="192" fill="#ffdaaa" r="16"/><circle cx="304" cy="192" fill="#ffdaaa" r="16"/></g><path d="m256 431.99v.01h-.01c-1.3-.18-119.59-16.4-47.99-88z" fill="#c6c5ca"/><path d="m256 432h-.01l.01-.01 47.99-87.99c71.6 71.6-46.69 87.82-47.99 88z" fill="#c6c5ca"/><circle cx="256" cy="464" fill="#ffdaaa" r="8"/><path d="m448 304c-32 32-144 24-144 24v-16.17c3.33-2.08 6.62-4.34 9.83-6.76 25.33-19.06 46.17-48.29 46.17-81.07v-112c-40 48-208 64-208 64v48c0 28.72 16 54.72 37 73.54q4.455 3.99 9.17 7.53c3.21 2.42 6.5 4.68 9.83 6.76v16.17s-112 8-144-24c0 0 48-144 48-200 0-48.6 64.47-88 144-88s144 39.4 144 88c0 56 48 200 48 200z" fill="#aa6100"/></g><g><path d="m503.75 494.03-18.75-73.63c-.02-.08-.04-.15-.06-.23a87.824 87.824 0 0 0 -66.48-61.94c-.04-.01-.08-.01-.12-.02l-106.34-20.8v-.97c5.41.23 13.07.46 22.12.46 9.03 0 19.45-.23 30.38-.92 44.47-2.77 74.47-11.63 89.16-26.32a8.012 8.012 0 0 0 1.93-8.19c-.48-1.43-47.59-143.39-47.59-197.47 0-26.4-16.34-50.92-46-69.05-28.44-17.38-66.08-26.95-106-26.95s-77.56 9.57-106 26.95c-29.66 18.13-46 42.65-46 69.05 0 54.06-47.11 196.04-47.59 197.47a8.012 8.012 0 0 0 1.93 8.19c14.69 14.69 44.69 23.55 89.16 26.32 10.93.69 21.35.92 30.38.92 9.05 0 16.71-.23 22.12-.46v.97l-106.34 20.8c-.04.01-.08.01-.12.02a87.824 87.824 0 0 0 -66.48 61.94c-.02.08-.04.15-.06.23l-18.75 73.63a7.99 7.99 0 0 0 7.75 9.97h480a7.99 7.99 0 0 0 7.75-9.97zm-185.77-102.35c-5.11 15.12-28.64 24.43-46.75 29.1l34.46-63.18c11.3 13.34 15.43 24.78 12.29 34.08zm-61.98 23.61-40-73.33v-16.58c13.85 6.81 27.82 10.62 40 10.62s26.15-3.81 40-10.62v16.57zm0-95.29c-18.19 0-42.4-11.16-61.66-28.42-29.88-26.78-34.34-53.83-34.34-67.58v-40.81c8.33-.95 23.21-2.8 41.29-5.7a15.987 15.987 0 1 0 8.44-1.39c10.36-1.76 21.52-3.85 32.94-6.27 50.84-10.82 87.47-24.21 109.33-39.9v94.07c0 13.75-4.46 40.8-34.34 67.58-19.26 17.26-43.47 28.42-61.66 28.42zm-182.74-18.55c8.66-26.52 46.74-146.15 46.74-197.45 0-20.61 13.62-40.29 38.35-55.4 25.96-15.86 60.64-24.6 97.65-24.6s71.69 8.74 97.65 24.6c24.73 15.11 38.35 34.79 38.35 55.4 0 51.3 38.08 170.92 46.74 197.45-13.16 9.89-38.92 16.28-75.07 18.55a503.755 503.755 0 0 1 -51.67.41v-4.3c30.17-20.23 56-53.94 56-92.11v-112c0-.05-.01-.08-.01-.12a7.992 7.992 0 0 0 -14.14-5c-10.58 12.7-39.02 31.22-114.37 47.26a882.911 882.911 0 0 1 -88.24 13.9 8 8 0 0 0 -7.24 7.94v48.02c0 38.17 25.83 71.88 56 92.11v4.34c-32.93 1.56-100.95.39-126.74-19zm133.05 56.15 34.46 63.18c-18.12-4.67-41.65-13.98-46.76-29.1-3.14-9.3.99-20.74 12.3-34.08zm193.69 130.4v-32a8 8 0 0 0 -16 0v32h-256v-32a8 8 0 0 0 -16 0v32h-85.71l16.18-63.54a71.854 71.854 0 0 1 54.32-50.56l90.55-17.71c-9.82 14.6-12.68 28.21-8.48 40.63 5.02 14.81 19.64 26.59 43.48 35.03a180.168 180.168 0 0 0 32.6 8.08h.03a6.994 6.994 0 0 0 1.02.07h.01a6.807 6.807 0 0 0 1.02-.07h.03a180.168 180.168 0 0 0 32.61-8.08c23.83-8.44 38.46-20.22 43.47-35.03 4.21-12.42 1.35-26.03-8.48-40.63l90.56 17.71a71.854 71.854 0 0 1 54.32 50.56l16.18 63.54z"/><path d="m264 264h-16a8 8 0 0 0 0 16h16a8 8 0 0 0 0-16z"/><circle cx="304" cy="192" r="16"/><circle cx="256" cy="464" r="8"/></g></g></svg>